<svg width="32" height="32" xmlns="http://www.w3.org/2000/svg">
    <path id="svg_2"
          d="m7.34717,30c-0.21338,0 -0.42627,-0.06836 -0.60401,-0.20264c-0.31591,-0.23974 -0.46093,-0.64404 -0.36865,-1.02978l2.35156,-9.83887l-7.30517,-5.18213c-0.31934,-0.22656 -0.47705,-0.61865 -0.40381,-1.00293c0.07373,-0.38476 0.36475,-0.69092 0.74512,-0.78418l9.52881,-2.32568l3.82812,-7.10791c0.34863,-0.64746 1.41211,-0.64844 1.76074,0l3.8291,7.10791l9.52881,2.32568c0.38037,0.09326 0.67139,0.39942 0.74512,0.78418c0.07324,0.38428 -0.08447,0.77637 -0.40381,1.00293l-7.30517,5.18213l2.35156,9.83887c0.09228,0.38574 -0.05274,0.79004 -0.36865,1.02978c-0.31739,0.23975 -0.74512,0.26807 -1.09131,0.07569l-8.16504,-4.55616l-8.16602,4.55616c-0.15234,0.08496 -0.31982,0.12695 -0.4873,0.12695zm8.65234,-6.82812c0.16797,0 0.33594,0.04248 0.48731,0.12695l6.66357,3.71777l-1.979,-8.28027c-0.09473,-0.39697 0.06103,-0.81201 0.39404,-1.04785l6.06934,-4.30567l-7.83252,-1.91162c-0.27491,-0.06738 -0.50879,-0.24805 -0.64307,-0.49756l-3.15869,-5.86474l-3.15967,5.86474c-0.13428,0.24951 -0.36816,0.43018 -0.64307,0.49756l-7.83252,1.91162l6.06934,4.30567c0.33301,0.23584 0.48877,0.65088 0.39404,1.04785l-1.979,8.28027l6.6626,-3.71777c0.15136,-0.08447 0.31933,-0.12695 0.4873,-0.12695z"/>
</svg>